<svg width="26" height="32" viewBox="0 0 26 32" fill="none" xmlns="http://www.w3.org/2000/svg">
<path d="M25.7841 27.7342L23.9426 6.98158C23.9095 6.5709 23.5651 6.25957 23.1478 6.25957H19.2662C19.2596 2.80853 16.451 0 13 0C9.54894 0 6.74041 2.80853 6.73379 6.25957H2.85219C2.44151 6.25957 2.09707 6.5709 2.05732 6.98158L0.215881 27.7342C0.215881 27.7607 0.215881 27.7806 0.215881 27.8071C0.215881 30.1188 2.34215 32 4.95196 32H21.048C23.6578 32 25.7841 30.1188 25.7841 27.8071C25.7841 27.7806 25.7841 27.7607 25.7841 27.7342ZM13 1.58973C15.5767 1.58973 17.6698 3.68288 17.6764 6.25957H8.32352C8.33014 3.68288 10.4233 1.58973 13 1.58973ZM21.048 30.4036H4.95196C3.22975 30.4036 1.82549 29.2577 1.80561 27.8336L3.58082 7.84931H6.73379V10.638C6.73379 11.0751 7.09148 11.4328 7.52865 11.4328C7.96583 11.4328 8.32352 11.0751 8.32352 10.638V7.84931H17.6764V10.638C17.6764 11.0751 18.0341 11.4328 18.4713 11.4328C18.9085 11.4328 19.2662 11.0751 19.2662 10.638V7.84931H22.4192L24.1944 27.8402C24.1745 29.2577 22.7702 30.4036 21.048 30.4036Z" fill="#231F20"/>
</svg>
