<svg width="32" height="100" viewBox="0 0 32 100" fill="none" xmlns="http://www.w3.org/2000/svg">
<path d="M29 61.7342L27.1586 40.9816C27.1254 40.5709 26.781 40.2596 26.3637 40.2596H22.4821C22.4755 36.8085 19.6669 34 16.2159 34C12.7649 34 9.95632 36.8085 9.9497 40.2596H6.0681C5.65742 40.2596 5.31298 40.5709 5.27323 40.9816L3.43179 61.7342C3.43179 61.7607 3.43179 61.7806 3.43179 61.8071C3.43179 64.1188 5.55806 66 8.16787 66H24.2639C26.8737 66 29 64.1188 29 61.8071C29 61.7806 29 61.7607 29 61.7342ZM16.2159 35.5897C18.7926 35.5897 20.8857 37.6829 20.8924 40.2596H11.5394C11.5461 37.6829 13.6392 35.5897 16.2159 35.5897ZM24.2639 64.4036H8.16787C6.44566 64.4036 5.0414 63.2577 5.02153 61.8336L6.79673 41.8493H9.9497V44.638C9.9497 45.0751 10.3074 45.4328 10.7446 45.4328C11.1817 45.4328 11.5394 45.0751 11.5394 44.638V41.8493H20.8924V44.638C20.8924 45.0751 21.25 45.4328 21.6872 45.4328C22.1244 45.4328 22.4821 45.0751 22.4821 44.638V41.8493H25.6351L27.4103 61.8402C27.3904 63.2577 25.9861 64.4036 24.2639 64.4036Z" fill="black"/>
</svg>
