<svg width="20" height="24" viewBox="0 0 20 24" fill="none" xmlns="http://www.w3.org/2000/svg">
<path d="M19.1762 20.8007L17.7951 5.23618C17.7702 4.92817 17.5119 4.69468 17.1989 4.69468H14.2877C14.2828 2.1064 12.1764 0 9.58808 0C6.99979 0 4.8934 2.1064 4.88843 4.69468H1.97723C1.66922 4.69468 1.41089 4.92817 1.38108 5.23618L0 20.8007C0 20.8205 0 20.8354 0 20.8553C0 22.5891 1.5947 24 3.55206 24H15.6241C17.5815 24 19.1762 22.5891 19.1762 20.8553C19.1762 20.8354 19.1762 20.8205 19.1762 20.8007ZM9.58808 1.1923C11.5206 1.1923 13.0905 2.76216 13.0954 4.69468H6.08073C6.0857 2.76216 7.65556 1.1923 9.58808 1.1923ZM15.6241 22.8027H3.55206C2.2604 22.8027 1.2072 21.9433 1.1923 20.8752L2.5237 5.88698H4.88843V7.97847C4.88843 8.30636 5.1567 8.57462 5.48458 8.57462C5.81246 8.57462 6.08073 8.30636 6.08073 7.97847V5.88698H13.0954V7.97847C13.0954 8.30636 13.3637 8.57462 13.6916 8.57462C14.0195 8.57462 14.2877 8.30636 14.2877 7.97847V5.88698H16.6525L17.9839 20.8801C17.9689 21.9433 16.9158 22.8027 15.6241 22.8027Z" fill="white"/>
</svg>
