<svg width="41" height="48" viewBox="0 0 41 48" fill="none" xmlns="http://www.w3.org/2000/svg">
<path d="M29.3219 36.9272L18.4798 45.6829C17.1167 46.7863 17.8991 47.5038 19.1466 46.5679C21.0247 45.159 31.8104 36.0867 36.634 31.8123C37.9177 30.5221 39.0546 31.1711 37.5077 32.1742C39.0896 31.9321 40.4619 31.5308 39.852 30.6195C38.8746 29.159 37.1284 30.4334 36.1221 31.303C32.7529 34.0812 29.0037 35.3825 26.0168 33.8288C28.2271 33.7679 35.008 29.1663 35.7965 25.5838C35.9757 24.9745 36.2983 23.505 36.155 21.6772C36.036 20.1609 36.5089 19.2183 37.1023 18.8092M8.04955 38.6803C7.31109 39.2951 7.80647 40.5548 8.54186 41.5702C8.80101 41.9281 9.21294 42.2784 9.72288 42.5891M8.04955 38.6803C8.53959 38.2724 9.57293 38.1485 11.44 38.5684M8.04955 38.6803C8.49478 39.2444 9.06095 39.839 9.73746 40.4473C10.0086 40.6911 10.2801 40.9006 10.549 41.0788M8.04955 38.6803C6.34262 36.5178 6.41323 34.8045 8.85808 34.4905M11.44 38.5684C11.6855 38.6236 11.9455 38.6883 12.2206 38.7629C12.8243 38.9267 13.3135 39.1174 13.7008 39.3224M11.44 38.5684C11.5699 38.0733 11.6575 37.6336 11.7013 37.2939M11.44 38.5684C11.2406 39.3282 10.9417 40.2186 10.549 41.0788M13.7008 39.3224C15.9656 40.5213 14.7498 42.2117 12.58 41.8963M13.7008 39.3224C13.7955 39.0231 13.8765 38.7307 13.9454 38.4457M13.7008 39.3224C13.5301 39.8625 13.3153 40.4253 13.0483 41.0088C12.9003 41.3324 12.7437 41.6276 12.58 41.8963M12.58 41.8963C11.9611 41.8064 11.2645 41.5532 10.549 41.0788M12.58 41.8963C12.2113 42.5019 11.8064 42.9735 11.3813 43.3354M10.549 41.0788C10.3084 41.6058 10.0326 42.1216 9.72288 42.5891M8.85808 34.4905C9.50333 34.4077 10.314 34.4223 11.3009 34.5519C11.5003 34.5781 11.6935 34.611 11.8804 34.65M8.85808 34.4905C9.20737 35.219 9.91929 36.0332 11.117 36.8914C11.3186 37.0358 11.5133 37.1698 11.7013 37.2939M8.85808 34.4905C7.8944 32.4807 9.69088 31.1229 11.6613 31.2901M11.8804 34.65C12.8532 34.8528 13.6561 35.2194 14.2763 35.6506M11.8804 34.65C11.9172 33.4496 11.8823 32.1899 11.6613 31.2901M11.8804 34.65C11.8521 35.5712 11.7817 36.4575 11.7207 37.1193C11.7157 37.1741 11.7092 37.2323 11.7013 37.2939M14.2763 35.6506C16.3349 37.0817 16.38 39.2238 13.9454 38.4457M14.2763 35.6506C14.2539 33.3081 13.4478 31.9001 13.3507 31.8382M14.2763 35.6506C14.2841 36.473 14.1954 37.4107 13.9454 38.4457M13.9454 38.4457C13.3486 38.255 12.6029 37.8889 11.7013 37.2939M12.6805 43.6418C12.2379 43.5747 11.7998 43.4697 11.3813 43.3354M12.6805 43.6418C14.8877 42.8124 17.2789 38.2014 14.8877 33.5226C14.4948 32.7538 13.953 32.2023 13.3507 31.8382M12.6805 43.6418C12.0503 43.8797 11.2111 44.0515 10.3315 44.0045M12.6805 43.6418C17.9374 44.4947 24.6852 43.052 24.4935 33.0063C23.5675 35.748 21.644 40.6465 21.3572 38.3069C21.3348 38.1238 21.319 37.9471 21.3091 37.7771M11.3813 43.3354C10.7719 43.1398 10.2038 42.882 9.72288 42.5891M11.3813 43.3354C11.0416 43.6244 10.689 43.8434 10.3315 44.0045M9.72288 42.5891C9.45034 43.0004 9.15156 43.3744 8.82744 43.6859M10.3315 44.0045C9.83293 43.9778 9.32136 43.8809 8.82744 43.6859M10.3315 44.0045C9.51733 44.3712 8.67785 44.4377 7.90838 44.3483M8.82744 43.6859C7.35241 43.1037 6.0347 41.6469 5.69084 38.5758C5.03276 32.6982 8.41939 29.6008 11.3009 30.4122M8.82744 43.6859C8.54071 43.9615 8.23415 44.1881 7.90838 44.3483M11.6613 31.2901C12.2307 31.3384 12.8146 31.5141 13.3507 31.8382M11.6613 31.2901C11.5732 30.9314 11.4555 30.6299 11.3009 30.4122M13.3507 31.8382C12.753 31.0902 12.0437 30.6213 11.3009 30.4122M11.3009 30.4122C10.8245 30.0022 10.2014 29.7216 9.50983 29.6115M11.3009 30.4122C10.7118 29.8439 10.2409 29.6915 9.50983 29.6115M7.90838 44.3483C6.47792 44.1822 5.28937 43.4772 4.9551 43.1611C3.85028 42.1161 2.10406 39.3244 3.48359 34.5519C4.53862 30.902 6.90277 29.5309 8.90993 29.5601M7.90838 44.3483C7.28585 44.6546 6.59317 44.7185 5.83468 44.4184C-2.20744 41.2368 0.448648 28.9372 8.90974 29.56L8.90993 29.5601M8.90993 29.5601C9.11418 29.563 9.31473 29.5805 9.50983 29.6115M8.90993 29.5601C9.12989 29.5763 9.32792 29.5916 9.50983 29.6115M21.3091 37.7771C21.1612 35.2337 22.3317 34.206 22.1637 35.748C22.108 36.2597 21.7575 37.0277 21.3091 37.7771ZM21.3091 37.7771C20.3159 39.4372 18.8422 41.0062 19.0275 39.495C19.0675 39.1681 19.1155 38.8554 19.1689 38.5626M19.1689 38.5626C19.4733 36.8913 19.9502 35.8706 20.1027 36.5705C20.1691 36.8751 19.7441 37.7308 19.1689 38.5626ZM19.1689 38.5626C18.1904 39.9775 16.7773 41.3231 16.6081 39.7692C16.393 37.7951 18.7115 33.8088 21.549 29.9705C20.0157 30.7523 19.2953 29.6546 20.0205 28.526M37.1023 18.8092C37.4031 18.6019 37.7349 18.5316 38.0363 18.593C38.5489 18.6976 37.8109 18.8979 37.1023 18.8092ZM37.1023 18.8092C36.854 18.7781 36.6093 18.7116 36.4233 18.593C35.8259 18.0752 34.2912 17.4732 32.9291 18.9355C31.2266 20.7633 29.7033 21.2885 27.9111 19.8262C26.119 18.364 25.3125 11.4184 18.7712 10.2303C13.5381 9.27989 8.28715 3.68076 6.31579 1C6.28592 2.49269 7.64197 6.35542 13.3051 9.86478C12.1104 9.52968 9.23698 8.49394 7.30147 7.03171C5.50244 5.67258 7.98859 11.0903 11.0583 13.5781M11.0583 13.5781C12.1169 14.4359 13.2448 14.9454 14.2903 14.7084C14.9176 14.5663 14.7384 13.8859 14.4696 13.7945C13.8761 13.5928 12.3272 13.4745 11.0583 13.5781ZM11.0583 13.5781C10.0283 13.6622 9.18274 13.8924 9.18274 14.3429C9.18274 15.836 10.8746 19.9176 14.0701 20.5262M14.0701 20.5262C15.4307 19.0865 18.9932 19.4316 16.6201 20.2832C15.6857 20.6185 14.8348 20.6718 14.0701 20.5262ZM14.0701 20.5262C13.8894 20.7173 13.7476 20.94 13.6636 21.1971C13.2492 22.4658 15.5461 24.262 17.47 24.5612M17.47 24.5612C18.0988 24.659 18.6877 24.597 19.1291 24.3043C19.9691 23.7475 19.1291 23.2076 18.1439 23.8474C17.8457 24.041 17.6232 24.2857 17.47 24.5612ZM17.47 24.5612C16.6416 26.0505 17.8354 28.4395 20.0205 28.526M20.0205 28.526C20.488 28.5446 21.0009 28.4577 21.549 28.2341C25.1333 26.7718 22.2569 26.8208 21.0109 27.5943C20.5529 27.8787 20.2277 28.2036 20.0205 28.526Z" stroke="#747B5A" stroke-width="0.5" stroke-linecap="round" stroke-linejoin="round"/>
</svg>
