<svg width="30" height="28" viewBox="0 0 30 28" fill="none" xmlns="http://www.w3.org/2000/svg">
<path d="M14.246 4.62523C14.436 4.84663 14.7132 4.97403 15.0049 4.97403C15.2966 4.97403 15.5738 4.84663 15.7638 4.62523C18.4819 1.45755 22.795 0.619239 26.1143 3.36932C29.5099 6.18267 29.926 10.9517 27.2994 14.3209C26.1275 15.8241 23.7146 18.2194 21.2394 20.5484C18.7834 22.8592 16.3277 25.0478 15.1144 26.1189C15.0682 26.1597 15.0292 26.1941 14.9946 26.2242C14.9601 26.1941 14.9211 26.1598 14.875 26.119L14.8749 26.1189C13.6616 25.0478 11.2059 22.8592 8.74986 20.5483C6.2746 18.2194 3.86172 15.8241 2.68985 14.3209C0.0721303 10.9631 0.530495 6.21796 3.88534 3.36058L3.88534 3.36058C7.13058 0.596537 11.5206 1.44909 14.246 4.62523Z" fill="white" stroke="#231F20" stroke-width="2" stroke-linecap="round" stroke-linejoin="round"/>
</svg>
