<svg width="126" height="36" viewBox="0 0 126 36" fill="none" xmlns="http://www.w3.org/2000/svg">
<path d="M12.7915 35.1771H8.64424V1.07005H0V0.575745H21.4857V1.07005H12.7915V35.1771Z" fill="#747B5A"/>
<path d="M50.528 0.575745H51.1776V20.3479C51.1776 25.5217 50.145 29.3278 48.0797 31.7664C46.0144 34.172 43.3162 35.3748 39.9851 35.3748C37.8865 35.3748 36.1043 35.1936 34.6386 34.8311C33.1729 34.4356 31.7905 33.7271 30.4914 32.7056C27.8265 30.6624 26.4941 26.5432 26.4941 20.3479V0.575745H30.6413V20.2985C30.6413 26.2961 31.5573 30.2999 33.3895 32.3101C34.3222 33.2987 35.2882 33.9743 36.2875 34.3368C37.3202 34.6992 38.5527 34.8805 39.9851 34.8805C43.1829 34.8805 45.7312 33.7271 47.63 31.4204C49.562 29.0806 50.528 25.3734 50.528 20.2985V0.575745Z" fill="#747B5A"/>
<path d="M81.4527 0.575745C82.0856 1.20186 82.4021 2.00923 82.4021 2.99784C82.4021 3.82168 82.2189 4.662 81.8525 5.51879L69.061 35.1771L68.5114 35.4242L55.9198 0.575745H60.1669L70.61 29.8386L81.2529 5.51879C81.6193 4.69495 81.8025 3.83816 81.8025 2.94841C81.8025 2.05866 81.5527 1.36663 81.053 0.87233L81.4527 0.575745Z" fill="#747B5A"/>
<path d="M110.925 0.575745C111.558 1.20186 111.875 2.00923 111.875 2.99784C111.875 3.82168 111.691 4.662 111.325 5.51879L98.5335 35.1771L97.9839 35.4242L85.3923 0.575745H89.6395L100.083 29.8386L110.725 5.51879C111.092 4.69495 111.275 3.83816 111.275 2.94841C111.275 2.05866 111.025 1.36663 110.526 0.87233L110.925 0.575745Z" fill="#747B5A"/>
<path d="M116.864 1.07005V0.575745H125.758V1.07005H123.309V34.6828H125.758V35.1771H116.864V34.6828H119.162V1.07005H116.864Z" fill="#747B5A"/>
</svg>
