<svg width="39" height="38" viewBox="0 0 39 38" fill="none" xmlns="http://www.w3.org/2000/svg">
<rect x="0.802856" y="-0.00146484" width="37.2379" height="38" rx="18.6189" fill="white"/>
<path d="M23.2466 20.3832C22.983 20.2464 21.7202 19.5623 21.4843 19.4559C21.2485 19.3495 21.0819 19.3191 20.9016 19.6079C20.7212 19.8968 20.2355 20.52 20.0829 20.7177C19.9302 20.9153 19.7915 20.9305 19.5278 20.7177C18.7706 20.3847 18.0712 19.9117 17.4603 19.3191C16.9072 18.7487 16.439 18.087 16.0727 17.3581C15.92 17.0845 16.0727 16.9324 16.1837 16.7804C16.2947 16.6284 16.4334 16.4612 16.5722 16.294C16.6737 16.1494 16.7576 15.991 16.822 15.8227C16.8564 15.7445 16.8743 15.6587 16.8743 15.5719C16.8743 15.485 16.8564 15.3993 16.822 15.3211C16.822 15.1842 16.2392 13.8009 16.0172 13.2384C15.7951 12.676 15.6009 12.752 15.4482 12.752H14.8932C14.6288 12.7633 14.3793 12.889 14.1994 13.1016C13.909 13.4051 13.679 13.7711 13.5238 14.1766C13.3686 14.582 13.2916 15.0183 13.2974 15.4579C13.3684 16.5372 13.7307 17.569 14.3381 18.4222C15.4529 20.2364 16.978 21.703 18.7646 22.6787C19.3752 22.9675 19.847 23.1347 20.2216 23.2715C20.7477 23.4458 21.3038 23.4822 21.8451 23.378C22.2047 23.2981 22.5454 23.1381 22.8461 22.908C23.1469 22.6778 23.4013 22.3825 23.5935 22.0402C23.7535 21.6175 23.8063 21.1553 23.7462 20.7025C23.6768 20.596 23.5103 20.52 23.2466 20.3832Z" fill="#C9D1B1"/>
<path d="M26.4978 11.1053C25.5255 10.1105 24.3665 9.32316 23.0892 8.78964C21.8118 8.25611 20.442 7.98725 19.0604 7.9989C17.2303 8.00861 15.4348 8.50481 13.8531 9.43796C12.2714 10.3711 10.9589 11.7085 10.0468 13.3166C9.13462 14.9248 8.65473 16.7473 8.65502 18.6022C8.6553 20.4572 9.13576 22.2795 10.0484 23.8874L8.64246 29.3735L14.1818 27.9486C15.7132 28.7931 17.4295 29.2341 19.1729 29.231H19.0604C21.1383 29.2448 23.1731 28.6309 24.9054 27.4678C26.6377 26.3047 27.9889 24.6451 28.7868 22.7005C29.5847 20.7559 29.7931 18.6145 29.3855 16.5494C28.9778 14.4843 27.9725 12.5891 26.4978 11.1053ZM19.0604 27.4071C17.5006 27.4083 15.9698 26.9798 14.6317 26.1673L14.3224 25.9821L11.0325 26.8513L11.9042 23.6024L11.7074 23.2746C10.5846 21.4419 10.1645 19.2551 10.527 17.1293C10.8895 15.0035 12.0093 13.0865 13.674 11.742C15.3386 10.3975 17.4322 9.71916 19.5577 9.83557C21.6831 9.95199 23.6924 10.8551 25.2044 12.3736C26.015 13.1885 26.6574 14.1588 27.0943 15.2279C27.5312 16.297 27.7538 17.4435 27.7491 18.6007C27.7454 20.9352 26.8288 23.1729 25.2002 24.8236C23.5715 26.4743 21.3637 27.4033 19.0604 27.4071Z" fill="#C9D1B1"/>
</svg>
