<svg width="69" height="123" viewBox="0 0 69 123" fill="none" xmlns="http://www.w3.org/2000/svg">
<path d="M6.91677 122.872H4.67426V105.255H0.00012207V105H11.6179V105.255H6.91677V122.872Z" fill="#231F20"/>
<path d="M27.3218 105H27.673V115.212C27.673 117.885 27.1147 119.851 25.9979 121.11C24.8812 122.353 23.4222 122.974 21.621 122.974C20.4862 122.974 19.5226 122.88 18.73 122.693C17.9375 122.489 17.19 122.123 16.4875 121.595C15.0465 120.54 14.3261 118.412 14.3261 115.212V105H16.5686V115.187C16.5686 118.285 17.0639 120.353 18.0546 121.391C18.5589 121.902 19.0813 122.251 19.6216 122.438C20.18 122.625 20.8464 122.719 21.621 122.719C23.3501 122.719 24.728 122.123 25.7547 120.931C26.7994 119.723 27.3218 117.808 27.3218 115.187V105Z" fill="#231F20"/>
<path d="M44.0435 105C44.3857 105.323 44.5568 105.74 44.5568 106.251C44.5568 106.676 44.4578 107.11 44.2596 107.553L37.343 122.872L37.0458 123L30.2372 105H32.5338L38.1805 120.114L43.9354 107.553C44.1335 107.127 44.2326 106.685 44.2326 106.225C44.2326 105.765 44.0975 105.408 43.8273 105.153L44.0435 105Z" fill="#231F20"/>
<path d="M59.98 105C60.3222 105.323 60.4933 105.74 60.4933 106.251C60.4933 106.676 60.3942 107.11 60.1961 107.553L53.2795 122.872L52.9823 123L46.1737 105H48.4702L54.117 120.114L59.8719 107.553C60.07 107.127 60.1691 106.685 60.1691 106.225C60.1691 105.765 60.034 105.408 59.7638 105.153L59.98 105Z" fill="#231F20"/>
<path d="M63.1909 105.255V105H68.0001V105.255H66.6762V122.617H68.0001V122.872H63.1909V122.617H64.4337V105.255H63.1909Z" fill="#231F20"/>
<path fill-rule="evenodd" clip-rule="evenodd" d="M9.61658 0.0235036C9.82065 -0.0413314 10.0434 0.0309757 10.1704 0.203324C11.8675 2.50524 14.9888 6.07526 18.8144 9.27115C22.6483 12.4739 27.138 15.2571 31.5742 16.0608C37.4724 17.1293 40.7788 20.7977 42.9867 24.4601C43.871 25.927 44.5875 27.4077 45.2199 28.7148C45.373 29.0311 45.5211 29.3373 45.6655 29.6306C46.0392 30.3896 46.3859 31.0592 46.7317 31.6145C47.0795 32.173 47.4088 32.5864 47.737 32.8535C49.2172 34.0581 50.5116 34.3908 51.7491 34.1236C53.0239 33.8484 54.3432 32.9165 55.8053 31.3509C57.0916 29.9735 58.4967 29.5395 59.7426 29.6037C60.9425 29.6654 61.9605 30.1864 62.5588 30.6916C62.7578 30.8109 63.0266 30.898 63.3352 30.9508C63.9161 30.6051 64.5629 30.4821 65.1751 30.6067C65.3018 30.6324 65.4397 30.6698 65.5555 30.7342C65.613 30.7661 65.702 30.8246 65.7725 30.9252C65.8546 31.0424 65.9005 31.2043 65.8564 31.3773C65.8183 31.5267 65.7284 31.6222 65.6727 31.6711C65.6133 31.7233 65.5507 31.7594 65.5014 31.7839C65.4021 31.8332 65.2887 31.869 65.1804 31.8959C64.7932 31.9921 64.1942 32.0419 63.5893 31.9902C62.8069 32.6246 62.1059 34.033 62.2937 36.4211C62.5483 39.6586 61.9808 42.2669 61.6547 43.3793C61.2826 45.0448 60.231 46.7801 58.8514 48.4293C57.4608 50.0916 55.7053 51.7038 53.88 53.1162C52.0541 54.5289 50.1465 55.7509 48.4446 56.629C47.5054 57.1135 46.6075 57.5047 45.8086 57.7607C50.4865 59.2784 56.1455 57.1519 61.416 52.8184C62.2963 52.0599 63.5545 51.0746 64.8406 50.616C65.4906 50.3842 66.1873 50.2721 66.864 50.4262C67.5554 50.5836 68.1683 51.0058 68.6567 51.7337C68.9817 52.2181 69.1017 52.7339 68.9035 53.2297C68.7198 53.6891 68.3072 54.0102 67.8631 54.2433C66.9703 54.7119 65.6052 55.0003 64.2294 55.2103C63.9963 55.2459 63.7701 55.1138 63.6865 54.8935C63.6028 54.6731 63.6844 54.4242 63.8824 54.2962C64.5277 53.8787 64.8219 53.5406 64.9215 53.3421C64.9224 53.3403 64.9232 53.3386 64.9241 53.3369C64.901 53.3359 64.8741 53.3362 64.843 53.3385C64.7265 53.3468 64.5692 53.3811 64.377 53.4576C63.993 53.6104 63.5052 53.9178 62.9846 54.4397C62.981 54.4433 62.9775 54.4467 62.9739 54.4501C62.9699 54.4539 62.9658 54.4576 62.9617 54.4613C54.5505 61.8956 35.7316 77.6854 32.4392 80.1489C31.8556 80.5857 31.2958 80.8534 30.8073 80.9542C30.344 81.0499 29.8163 81.0145 29.481 80.6448C29.1236 80.2505 29.1885 79.7142 29.3988 79.2732C29.6154 78.819 30.0373 78.3256 30.6628 77.8205L30.6633 77.8201L49.5676 62.5927C49.7826 62.4195 50.0974 62.4534 50.2706 62.6684C50.4439 62.8835 50.41 63.1982 50.1949 63.3715L31.291 78.5985C30.7284 79.0528 30.4295 79.435 30.3015 79.7036C30.2251 79.8637 30.2233 79.9437 30.2283 79.9745C30.2576 79.9884 30.3609 80.0253 30.6051 79.9749C30.9098 79.912 31.3362 79.7253 31.8401 79.3483C35.0955 76.9124 53.8723 61.1596 62.2878 53.7222C62.8825 53.1286 63.4776 52.7393 64.0072 52.5285C64.5107 52.3281 65.0552 52.2522 65.4671 52.4587C65.6959 52.5735 65.8773 52.7769 65.9364 53.0545C65.9916 53.314 65.9257 53.5702 65.8155 53.7902C65.7955 53.8301 65.7733 53.8702 65.7491 53.9104C66.4166 53.7557 66.9854 53.5746 67.3983 53.3579C67.7643 53.1658 67.9228 52.9889 67.9749 52.8585C68.0125 52.7646 68.0329 52.5988 67.8262 52.2908C67.4625 51.7486 67.0557 51.4954 66.6421 51.4012C66.2137 51.3037 65.7201 51.364 65.1766 51.5579C64.0779 51.9497 62.9385 52.8262 62.0645 53.5796L62.0557 53.5872L62.0556 53.5871C56.1397 58.4528 49.3752 60.8842 43.8882 58.0375C43.6859 57.9325 43.5802 57.704 43.6311 57.4818C43.6821 57.2597 43.8769 57.1001 44.1047 57.0938C44.9471 57.0707 46.3221 56.5987 47.9861 55.7403C49.6279 54.8932 51.4845 53.7053 53.268 52.3253C55.052 50.9449 56.751 49.3815 58.0843 47.7877C59.4239 46.1864 60.3633 44.5911 60.682 43.1467C60.6845 43.1354 60.6874 43.1241 60.6907 43.113C60.9904 42.0967 61.5409 39.6033 61.2968 36.4995C61.1271 34.3416 61.6168 32.7375 62.4338 31.7385C62.2801 31.6784 62.1321 31.6058 61.9949 31.5186C61.9743 31.5054 61.9546 31.4908 61.9361 31.4748C61.4882 31.0876 60.6621 30.6523 59.6912 30.6023C58.745 30.5536 57.6246 30.8678 56.5361 32.0334C55.0296 33.6466 53.5367 34.7607 51.9602 35.1011C50.3463 35.4496 48.7503 34.9675 47.1058 33.6291C46.6528 33.2604 46.2546 32.74 45.8828 32.1432C45.5091 31.543 45.1442 30.8356 44.7684 30.0723C44.6186 29.7681 44.4668 29.4544 44.3113 29.1332C43.68 27.8288 42.9884 26.3999 42.1303 24.9764C40.0025 21.4468 36.9031 18.0425 31.396 17.0448C26.7079 16.1955 22.0576 13.2834 18.1733 10.0386C15.0302 7.41287 12.3547 4.54056 10.5249 2.28925C11.3418 5.36107 14.3026 10.5996 22.2174 15.4917C22.4293 15.6227 22.5125 15.8897 22.4125 16.1178C22.3124 16.3459 22.0597 16.4657 21.8198 16.3986C19.713 15.8091 14.6334 13.9873 11.1857 11.3893C11.0922 11.3189 11.0119 11.2644 10.9438 11.2231C10.9778 11.4609 11.0718 11.8011 11.2368 12.2351C11.423 12.7248 11.6879 13.3043 12.0214 13.9419C13.3361 16.4548 15.6525 19.748 18.1989 21.8613C19.2789 21.7853 20.4497 21.7954 21.4861 21.8652C22.5738 21.9384 23.5627 22.0803 24.1454 22.2779C24.4175 22.3701 24.6074 22.5833 24.722 22.7845C24.8415 22.9943 24.9145 23.2497 24.9145 23.513C24.9145 23.7799 24.8385 24.0704 24.6407 24.3206C24.4409 24.5733 24.1476 24.7459 23.7826 24.8285C21.7868 25.2796 19.7218 24.3388 17.8815 22.8905C17.0824 22.9653 16.3906 23.0918 15.8997 23.2708C15.6332 23.368 15.4594 23.4689 15.3601 23.5585C15.2692 23.6405 15.2668 23.6863 15.2668 23.705C15.2668 24.8766 15.9569 27.2068 17.3588 29.3884C18.7094 31.4903 20.6529 33.3486 23.1284 33.9144C23.7749 33.3174 24.602 32.9116 25.4132 32.6518C26.315 32.3629 27.2389 32.241 27.961 32.253C28.3188 32.259 28.6536 32.2981 28.9204 32.3813C29.0529 32.4226 29.1942 32.4825 29.3159 32.5744C29.4391 32.6674 29.5751 32.82 29.6122 33.043C29.6498 33.2683 29.5691 33.4616 29.4728 33.5984C29.3788 33.7318 29.2498 33.843 29.1132 33.9374C28.839 34.1272 28.436 34.316 27.903 34.5067C26.3088 35.0774 24.831 35.2049 23.4807 34.9987C23.2934 35.2347 23.1484 35.4947 23.0547 35.781C22.9308 36.1592 22.9934 36.6228 23.2811 37.1618C23.5684 37.7001 24.0575 38.2663 24.6914 38.8008C25.8761 39.8 27.4835 40.6197 28.971 40.924C29.2622 40.4997 29.644 40.123 30.1196 39.8149C30.6022 39.5024 31.0824 39.3237 31.5164 39.2587C31.9406 39.1952 32.3584 39.2357 32.6829 39.4125C32.8487 39.5028 33.0028 39.6366 33.1026 39.8221C33.2052 40.0128 33.2331 40.2274 33.1903 40.4392C33.1095 40.8391 32.7935 41.1762 32.385 41.4463C31.568 41.9866 30.5459 42.1236 29.5082 42.0177C29.062 43.0832 29.2169 44.4281 29.8999 45.5842C30.6018 46.7721 31.83 47.701 33.414 47.8536C33.8174 47.3094 34.386 46.7848 35.127 46.3259C35.7317 45.9515 36.5088 45.6776 37.2191 45.5127C37.9159 45.3509 38.6302 45.275 39.1026 45.3565C39.2248 45.3776 39.3624 45.4142 39.4872 45.4837C39.6135 45.554 39.7703 45.6844 39.8321 45.9038C39.894 46.1238 39.8287 46.3203 39.7526 46.4545C39.6774 46.587 39.5686 46.7028 39.4536 46.8037C39.0082 47.1943 38.0761 47.6923 36.5169 48.3267C35.6151 48.6937 34.7532 48.8659 33.9463 48.8752C33.534 49.6474 33.6377 50.2534 33.8933 50.5416C34.1577 50.8397 34.8461 51.0765 36.1018 50.4378C36.3086 50.3326 36.5606 50.3835 36.7103 50.5607C36.8601 50.7378 36.8683 50.9948 36.7302 51.1812C34.2649 54.5075 32.0333 57.8871 30.4672 60.8534C29.684 62.3367 29.0728 63.7065 28.681 64.9074C28.2865 66.1165 28.128 67.1147 28.2105 67.8704C28.2802 68.5083 28.4573 68.6088 28.4848 68.6201C28.5396 68.6424 28.7348 68.6549 29.1472 68.3906C29.9075 67.9036 30.8748 66.8144 31.7065 65.6291C31.9721 64.2077 32.3131 63.0301 32.6394 62.3351C32.7237 62.1554 32.8148 61.9912 32.9132 61.8586C32.999 61.7431 33.1441 61.5765 33.3586 61.5059C33.4819 61.4654 33.6267 61.4577 33.772 61.5098C33.9109 61.5596 34.009 61.6491 34.0745 61.732C34.1955 61.8851 34.2573 62.0813 34.2952 62.2551C34.3522 62.516 34.2957 62.8104 34.2223 63.0629C34.1431 63.3348 34.018 63.6424 33.8632 63.966C33.5654 64.5885 33.1383 65.3106 32.6514 66.0213C32.5677 66.4904 32.4921 66.9889 32.4282 67.5088C32.4036 67.7088 32.4006 67.8524 32.4073 67.9511C32.5145 67.8919 32.6536 67.7924 32.8217 67.6456C33.5602 67.0009 34.5638 65.7091 35.4028 64.333C35.2995 62.1429 35.7397 60.5258 36.2518 59.7548C36.3815 59.5595 36.5496 59.3665 36.7618 59.258C36.8741 59.2005 37.0177 59.1575 37.1797 59.1728C37.348 59.1888 37.4919 59.2638 37.6012 59.3689C37.7979 59.558 37.8732 59.8305 37.9051 60.0638C37.9398 60.3171 37.9365 60.6264 37.8973 60.9857C37.791 61.9584 37.168 63.3135 36.4191 64.5828C36.4357 64.8209 36.4592 65.0669 36.4904 65.3207C36.5192 65.5558 36.5564 65.7265 36.5953 65.8453C36.5981 65.8539 36.6009 65.862 36.6036 65.8697C36.7278 65.7565 36.8951 65.5521 37.0989 65.238C37.3339 64.8757 37.5914 64.4089 37.8626 63.8636C38.95 61.6774 40.1835 58.3814 40.9888 56.0029C41.0668 55.7727 41.2989 55.6319 41.539 55.6691C41.7791 55.7063 41.9577 55.9107 41.9623 56.1537C42.1318 65.0088 39.2284 70.1933 34.9987 72.9386C30.8442 75.6352 25.5266 75.8995 20.9156 75.1739C19.8054 75.574 18.3724 75.8575 16.8635 75.7954C15.4314 76.4124 13.9687 76.5363 12.6312 76.4008C11.4588 76.9373 10.1507 77.0298 8.7456 76.4754C1.46677 73.6031 -0.959747 66.6024 0.330209 60.5054C1.61925 54.4127 6.64572 49.114 14.3132 49.67C14.6836 49.676 15.048 49.7077 15.4033 49.7635C16.0558 49.8352 16.6309 49.9431 17.1851 50.176C17.7158 50.3991 18.2024 50.726 18.7161 51.2054C20.0536 51.609 21.3111 52.4551 22.3684 53.7501C23.4677 54.4316 24.448 55.4456 25.1589 56.833C27.308 61.0275 27.3116 65.2031 26.2735 68.5202C25.4704 71.0861 24.0243 73.1887 22.4194 74.3657C26.5485 74.8146 30.9755 74.3578 34.4543 72.0998C37.8265 69.9111 40.3986 65.9682 40.8859 59.2645C40.2198 61.0393 39.4626 62.8924 38.758 64.309C38.4778 64.8723 38.2014 65.376 37.9378 65.7823C37.6823 66.1762 37.4102 66.5244 37.1283 66.7314C36.9856 66.8361 36.7967 66.9374 36.5734 66.9497C36.3248 66.9633 36.1079 66.8629 35.9475 66.6974C35.8018 66.5473 35.7091 66.3523 35.645 66.1568C35.6193 66.0781 35.5963 65.9936 35.5758 65.9036C34.8725 66.9253 34.1149 67.8441 33.4794 68.3989C33.2589 68.5914 33.0339 68.7573 32.8151 68.8663C32.6116 68.9676 32.3232 69.0651 32.0263 68.9735C31.6862 68.8686 31.5207 68.581 31.454 68.3135C31.4052 68.1182 31.395 67.8904 31.4115 67.639C30.8382 68.3025 30.2396 68.8784 29.6866 69.2327C29.233 69.5233 28.6502 69.7678 28.1067 69.5458C27.5359 69.3126 27.2943 68.6923 27.2164 67.979C27.1115 67.0181 27.3176 65.8623 27.7303 64.5973C28.1456 63.3242 28.7838 61.8999 29.5829 60.3865C30.9849 57.7309 32.8988 54.7697 35.0232 51.8218C34.2483 51.9103 33.589 51.7056 33.1451 51.2051C32.5914 50.5808 32.5396 49.6764 32.8872 48.7909C31.158 48.4892 29.8196 47.4142 29.039 46.0929C28.2728 44.7961 28.0174 43.2113 28.503 41.8444C26.9116 41.4646 25.2719 40.5986 24.0467 39.5653C23.3503 38.978 22.7641 38.317 22.3989 37.6327C22.034 36.9491 21.8669 36.1949 22.1043 35.4698C22.187 35.2174 22.2966 34.9826 22.4279 34.7647C19.8337 34.0031 17.8597 32.0178 16.5175 29.929C15.0516 27.6476 14.2668 25.1302 14.2668 23.705C14.2668 23.332 14.4486 23.034 14.6903 22.816C14.9235 22.6057 15.2305 22.4504 15.5571 22.3313C15.9305 22.1951 16.3734 22.0907 16.8545 22.0123C14.4638 19.807 12.3686 16.7627 11.1353 14.4054C10.7885 13.7425 10.5057 13.1261 10.3021 12.5904C10.1018 12.0635 9.96575 11.5832 9.93566 11.2027C9.92088 11.0158 9.92718 10.8047 10.0009 10.6128C10.084 10.3966 10.2584 10.2004 10.5345 10.1361C10.7712 10.081 11.0012 10.1438 11.1817 10.2213C11.3717 10.3029 11.5743 10.43 11.7875 10.5906C13.7808 12.0927 16.3714 13.337 18.5648 14.214C11.185 8.66941 9.21775 2.99879 9.26808 0.490003C9.27237 0.275922 9.41251 0.0883385 9.61658 0.0235036ZM20.8084 74.1447C21.715 73.7696 22.6685 72.974 23.5053 71.8495C22.7859 72.1372 21.8994 72.2515 20.9452 72.1585C20.5168 72.8231 20.0608 73.3971 19.5835 73.8894C19.9865 73.9923 20.3963 74.0782 20.8084 74.1447ZM18.4853 73.5621C18.9622 73.128 19.4261 72.6028 19.8672 71.9709C19.0669 71.7721 18.2212 71.4321 17.3609 70.9244C17.0713 71.5188 16.7549 72.1023 16.4121 72.6572C17.0389 72.9994 17.7402 73.3074 18.4853 73.5621ZM15.8582 73.4938C16.384 73.7854 16.9552 74.0527 17.5567 74.2871C17.2655 74.4798 16.9709 74.6444 16.6746 74.7838C16.1349 74.7476 15.5901 74.661 15.0535 74.5125C15.3352 74.1937 15.6034 73.8521 15.8582 73.4938ZM15.5574 72.1381C15.9031 71.5791 16.2231 70.9845 16.5163 70.3739C16.1444 70.1079 15.7715 69.8094 15.4001 69.4763C14.3927 68.5727 13.5189 67.6821 12.7918 66.8215C12.6278 67.1632 12.6098 67.6094 12.7428 68.1666C12.9368 68.9795 13.4327 69.9075 14.0539 70.7632C14.3872 71.2222 14.9006 71.6932 15.5574 72.1381ZM12.1317 65.995C11.5997 66.6763 11.57 67.5599 11.7701 68.3987C12.0067 69.39 12.5838 70.4403 13.2447 71.3507C13.6652 71.9298 14.2759 72.4786 15.0031 72.9704C14.6947 73.3992 14.3706 73.7943 14.0318 74.1455C11.7858 73.1382 9.73453 70.7761 9.17521 65.7934C8.61282 60.7834 9.78506 57.0228 11.6451 54.7006C13.4572 52.4382 15.9105 51.5387 18.1466 52.0861C18.2414 52.2454 18.3294 52.4354 18.4099 52.6552C16.8383 52.6791 15.3542 53.2177 14.3746 54.1861C13.8055 54.7485 13.4077 55.4571 13.2784 56.2819C13.1771 56.9284 13.244 57.6248 13.4979 58.3533C12.674 58.5207 11.9931 58.7952 11.4674 59.1815C10.7985 59.6732 10.4027 60.3314 10.2867 61.1083C10.0762 62.5182 10.7973 64.2189 12.1317 65.995ZM13.5416 66.1594C14.2362 66.9835 15.0813 67.8471 16.0678 68.7318C16.3587 68.9928 16.6492 69.2296 16.9379 69.4438C17.4102 68.3397 17.7927 67.2246 18.0804 66.2147C16.7278 65.9405 15.6761 65.8504 14.8729 65.8931C14.2914 65.924 13.8593 66.0234 13.5416 66.1594ZM18.3359 65.2462C16.9048 64.9526 15.7456 64.8453 14.8198 64.8945C14.0429 64.9358 13.4033 65.089 12.9035 65.3573C11.636 63.6599 11.1271 62.2512 11.2757 61.256C11.3513 60.7496 11.5995 60.3255 12.0596 59.9873C12.4774 59.6803 13.0847 59.4344 13.9206 59.2916C14.6236 60.567 15.8913 61.9277 17.8486 63.3266C18.1114 63.5144 18.3679 63.6924 18.6182 63.861C18.5549 64.2611 18.4608 64.7295 18.3359 65.2462ZM19.058 66.4327C18.7432 67.5465 18.3165 68.7872 17.782 70.0112C18.7181 70.5765 19.6191 70.9122 20.4355 71.0733C20.6485 70.7029 20.8546 70.3032 21.0523 69.8721C21.4424 69.0217 21.767 68.198 22.0349 67.4033C21.462 67.136 20.7662 66.8828 19.9329 66.6573C19.6304 66.5754 19.3388 66.5006 19.058 66.4327ZM22.3362 66.4413C21.7279 66.167 21.0165 65.9146 20.1942 65.692C19.8901 65.6097 19.596 65.5342 19.3117 65.4653C19.3984 65.1058 19.4714 64.7657 19.5306 64.4511C20.645 65.1409 21.6247 65.6288 22.4735 65.9452C22.4301 66.1092 22.3844 66.2746 22.3362 66.4413ZM22.9256 67.8896C22.6578 68.6658 22.3386 69.4663 21.9613 70.289C21.8168 70.6039 21.6675 70.9045 21.5137 71.1912C22.8958 71.2139 23.8188 70.6968 24.1287 70.1327C24.2967 69.8268 24.3193 69.46 24.0955 69.0384C23.9086 68.6864 23.5426 68.2877 22.9256 67.8896ZM23.241 66.909C23.3078 66.6851 23.3703 66.4635 23.4288 66.2442C24.3104 66.462 25.0534 66.4672 25.6305 66.2532C25.6852 66.2329 25.7381 66.2107 25.789 66.1869C25.6808 66.8959 25.521 67.5765 25.3191 68.2215C25.2524 68.4345 25.1814 68.6432 25.1062 68.8474C25.0702 68.7545 25.0277 68.6617 24.9787 68.5694C24.6615 67.9719 24.0815 67.4087 23.241 66.909ZM25.8113 62.1014C25.5928 60.5406 25.1036 58.9182 24.2689 57.289C24.0209 56.8049 23.7375 56.3752 23.4272 55.9963C23.7794 57.1128 24.0998 58.6371 24.1436 60.5014C24.8259 61.0015 25.3851 61.5483 25.8113 62.1014ZM23.114 59.8385C23.0151 58.2888 22.7192 57.0312 22.4153 56.1173C22.2339 55.5718 22.0504 55.1512 21.906 54.8661C21.8335 54.7229 21.7729 54.618 21.7295 54.5505C21.7221 54.5388 21.7155 54.5289 21.7099 54.5206C21.0744 54.1479 20.3985 53.9023 19.7218 53.7707C19.9699 55.1965 20.0189 56.9437 19.9811 58.6238C21.1737 58.9104 22.221 59.3347 23.114 59.8385ZM19.9479 59.6461C21.2132 59.9726 22.2831 60.4641 23.1484 61.0285C23.1421 62.209 23.0171 63.5269 22.7084 64.9647C21.8722 64.6413 20.8681 64.1264 19.6892 63.3689C19.6894 63.3666 19.6896 63.3644 19.6899 63.3622C19.7831 62.3524 19.8894 61.0397 19.9479 59.6461ZM18.985 58.4232C19.0171 56.6936 18.9499 54.9739 18.683 53.6564C17.2184 53.6173 15.8877 54.0965 15.0776 54.8973C14.6441 55.3257 14.3592 55.8448 14.2664 56.4367C14.1861 56.9486 14.2455 57.5412 14.5106 58.2076C15.6215 58.1054 16.9571 58.1501 18.5249 58.3554C18.6803 58.3758 18.8337 58.3984 18.985 58.4232ZM15.0137 59.1735C15.951 59.1227 17.0738 59.1739 18.3951 59.3469C18.5854 59.3719 18.7723 59.4004 18.9557 59.4324C18.9091 60.6311 18.8248 61.7794 18.7421 62.7335C18.6392 62.6617 18.5352 62.5882 18.43 62.513C16.749 61.3116 15.6597 60.1829 15.0137 59.1735ZM23.6649 65.2725C23.9398 64.0198 24.0824 62.8493 24.13 61.7717C24.6043 62.1896 24.9782 62.6214 25.2511 63.0364C25.6629 63.6629 25.8208 64.213 25.7981 64.6043C25.7776 64.9572 25.6169 65.1916 25.2828 65.3156C24.9594 65.4355 24.4345 65.4633 23.6649 65.2725ZM19.4824 52.7186C19.5758 52.7311 19.6694 52.7454 19.763 52.7616C19.656 52.6968 19.5483 52.6359 19.4399 52.5789C19.4545 52.625 19.4686 52.6716 19.4824 52.7186ZM21.687 54.4888C21.6871 54.4889 21.6872 54.489 21.6873 54.4891L21.687 54.4888ZM16.1686 50.965C15.8805 50.8753 15.5803 50.8047 15.2706 50.7549C14.9705 50.7225 14.6419 50.6968 14.2694 50.6695C11.0354 50.6293 7.0954 52.8297 5.31003 58.9903C2.95894 67.1031 5.94318 71.7661 7.7386 73.4599C7.97513 73.683 8.58505 74.0998 9.46074 74.4988C10.2905 74.877 11.3268 75.2242 12.4542 75.3734C12.7183 75.2334 12.9771 75.0644 13.2303 74.8691C10.7699 73.5987 8.7417 70.8959 8.18145 65.9049C7.59641 60.6931 8.8029 56.6494 10.8646 54.0755C12.323 52.2547 14.2155 51.1707 16.1686 50.965ZM14.2611 75.312C14.215 75.353 14.1686 75.3934 14.1218 75.4332C14.2533 75.4245 14.3851 75.4124 14.5172 75.3968C14.4317 75.37 14.3463 75.3417 14.2611 75.312ZM10.0036 75.7968C9.66223 75.675 9.34164 75.5435 9.04608 75.4088C8.11635 74.9852 7.39868 74.514 7.05238 74.1873C4.99512 72.2465 1.88998 67.1991 4.34955 58.712C5.39536 55.1033 7.17642 52.7039 9.19606 51.2891C4.96688 52.7572 2.19949 56.5013 1.30855 60.7124C0.100316 66.4231 2.36931 72.8842 9.11266 75.5452C9.41776 75.6656 9.71457 75.7483 10.0036 75.7968ZM18.6889 74.7004C18.6957 74.695 18.7026 74.6896 18.7094 74.6842C18.7192 74.6871 18.7291 74.6901 18.7389 74.693C18.7223 74.6955 18.7056 74.698 18.6889 74.7004ZM36.4787 62.2822C36.7116 61.7344 36.8625 61.2497 36.9032 60.8771C36.9144 60.7748 36.9215 60.6821 36.9254 60.5987C36.7514 60.9733 36.5797 61.5402 36.4787 62.2822ZM33.7507 62.4138C33.7506 62.414 33.7496 62.415 33.7476 62.4167C33.7498 62.4145 33.7508 62.4137 33.7507 62.4138ZM34.827 47.7884C35.2446 47.713 35.6829 47.5865 36.14 47.4005C36.9121 47.0863 37.5019 46.8161 37.9402 46.5873C38.1179 46.4945 38.2673 46.4103 38.3917 46.3346C38.3729 46.336 38.3537 46.3376 38.3342 46.3394C38.0702 46.363 37.7649 46.4126 37.4453 46.4868C36.7995 46.6367 36.135 46.878 35.6534 47.1761C35.3364 47.3725 35.062 47.5786 34.827 47.7884ZM30.1649 41.051C30.8234 41.0475 31.3924 40.9038 31.8334 40.6122C32.064 40.4597 32.1559 40.343 32.1906 40.2836C32.1099 40.2456 31.9355 40.2071 31.6645 40.2477C31.3865 40.2893 31.0396 40.4105 30.6632 40.6542C30.477 40.7749 30.3113 40.9078 30.1649 41.051ZM24.5865 34.0902C25.506 34.1055 26.4986 33.9473 27.566 33.5652C27.8678 33.4572 28.0996 33.3584 28.2731 33.2715C28.1763 33.2615 28.0665 33.2549 27.9444 33.2529C27.3343 33.2427 26.519 33.3476 25.7182 33.6041C25.3201 33.7317 24.9358 33.8934 24.5865 34.0902ZM19.4873 22.8102C20.9104 23.7207 22.3031 24.1377 23.5621 23.8531C23.7439 23.812 23.8217 23.744 23.8563 23.7003C23.8928 23.6542 23.9145 23.5926 23.9145 23.513C23.9145 23.4296 23.8898 23.344 23.8531 23.2795C23.8318 23.2422 23.8149 23.2254 23.8085 23.2196C23.3519 23.0685 22.481 22.9344 21.4189 22.8629C20.8055 22.8216 20.1443 22.8022 19.4873 22.8102ZM30.2332 79.9901C30.2329 79.9902 30.2317 79.9883 30.2305 79.9841C30.2328 79.9879 30.2335 79.99 30.2332 79.9901Z" fill="#231F20"/>
</svg>
